<?xml version="1.0" encoding="UTF-8" standalone="no"?>
<svg
   xmlns="http://www.w3.org/2000/svg"
   fill="context-fill"
   fill-opacity="context-fill-opacity"
   id="svg4555"
   version="1.1"
   viewBox="0 0 256 256"
   height="256"
   width="256">
  <g
     transform="translate(0,187.7375)"
     style="display:inline"
     id="g910">
    <path
       d="m 48.901068,-186.56855 q 0,-1.16895 0.779297,-1.16895 H 206.31964 q 0.77929,0 0.77929,1.16895 v 21.8204 q 0,1.16895 -0.77929,1.16895 H 49.680365 q -0.779297,0 -0.779297,-1.16895 z m 61.564682,154.691021 q 0,-1.168951 1.16895,-1.168951 h 125.46728 q 1.16895,0 1.16895,1.168951 v 21.820395 q 0,1.168951 -1.16895,1.168951 H 111.6347 q -1.16895,0 -1.16895,-1.168951 z M 48.901068,45.273156 q 0,-1.168947 0.779297,-1.168947 H 175.14764 q 0.7793,0 0.7793,1.168947 v 21.820395 q 0,1.168951 -0.7793,1.168951 H 49.680365 q -0.779297,0 -0.779297,-1.168951 z M 172.42009,-70.452872 q 0,-1.168951 0.7793,-1.168951 h 63.90259 q 1.16895,0 1.16895,1.168951 v 21.430745 q 0,1.168951 -1.16895,1.168951 h -63.90259 q -0.7793,0 -0.7793,-1.168951 z M 17.72907,-31.877529 q 0,-1.168951 0.779301,-1.168951 h 63.902587 q 1.168951,0 1.168951,1.168951 v 21.820395 q 0,1.168951 -1.168951,1.168951 H 18.508371 q -0.779301,0 -0.779301,-1.168951 z m 0,-77.150681 q 0,-1.16896 0.779301,-1.16896 h 63.902587 q 1.168951,0 1.168951,1.16896 v 21.430741 q 0,1.168951 -1.168951,1.168951 H 18.508371 q -0.779301,0 -0.779301,-1.168951 z m 154.69102,0 q 0,-1.16896 0.7793,-1.16896 h 63.90259 q 1.16895,0 1.16895,1.16896 v 21.430741 q 0,1.168951 -1.16895,1.168951 h -63.90259 q -0.7793,0 -0.7793,-1.168951 z m -154.69102,-38.965 q 0,-1.16895 0.779301,-1.16895 h 63.902587 q 1.168951,0 1.168951,1.16895 v 21.8204 q 0,1.16895 -1.168951,1.16895 H 18.508371 q -0.779301,0 -0.779301,-1.16895 z m 0,154.6910234 q 0,-1.1689511 0.779301,-1.1689511 h 63.902587 q 1.168951,0 1.168951,1.1689511 V 28.518208 q 0,1.168952 -1.168951,1.168952 H 18.508371 q -0.779301,0 -0.779301,-1.168952 z m 123.90868,0 q 0,-1.1689511 0.7793,-1.1689511 h 63.90259 q 0.77929,0 0.77929,1.1689511 V 28.518208 q 0,1.168952 -0.77929,1.168952 h -63.90259 q -0.7793,0 -0.7793,-1.168952 z M 17.72907,-70.452872 q 0,-1.168951 0.779301,-1.168951 h 63.902587 q 1.168951,0 1.168951,1.168951 v 21.430745 q 0,1.168951 -1.168951,1.168951 H 18.508371 q -0.779301,0 -0.779301,-1.168951 z m 154.69102,-77.540338 q 0,-1.16895 0.7793,-1.16895 h 63.90259 q 1.16895,0 1.16895,1.16895 v 21.8204 q 0,1.16895 -1.16895,1.16895 h -63.90259 q -0.7793,0 -0.7793,-1.16895 z m 31.172,193.266366 q 0,-1.168947 0.77929,-1.168947 h 32.7306 q 1.16895,0 1.16895,1.168947 v 21.820395 q 0,1.168951 -1.16895,1.168951 h -32.7306 q -0.77929,0 -0.77929,-1.168951 z" />
  </g>
</svg>
